<svg width="24" height="20" viewBox="0 0 24 20" fill="none" xmlns="http://www.w3.org/2000/svg">
<path d="M17.1949 0.000467545C15.1929 -0.0103019 13.2896 0.874726 12 2.41616C10.7184 0.864191 8.80988 -0.0233541 6.80503 0.000467545C3.0467 0.000467545 0 3.06713 0 6.85008C0 13.3328 11.2405 19.6626 11.6962 19.9072C11.8801 20.0309 12.1199 20.0309 12.3038 19.9072C12.7595 19.6626 24 13.4246 24 6.85008C24 3.06713 20.9532 0.000467545 17.1949 0.000467545ZM12 18.6841C10.238 17.6444 1.21519 12.1097 1.21519 6.85008C1.21519 3.74268 3.71785 1.22356 6.80508 1.22356C8.69561 1.19857 10.4648 2.1584 11.4836 3.76159C11.6904 4.04868 12.0893 4.11265 12.3746 3.9044C12.4291 3.8646 12.477 3.81643 12.5164 3.76159C14.206 1.16082 17.6702 0.431071 20.2541 2.13165C21.8358 3.17272 22.7879 4.94775 22.7848 6.85003C22.7848 12.1708 13.762 17.675 12 18.6841Z" fill="#2C2C2C"/>
</svg>
